<svg width="153" height="24" viewBox="0 0 153 24" fill="none" xmlns="http://www.w3.org/2000/svg">
<g clip-path="url(#clip0_4454_173739)">
<path d="M46.493 11.9377H38.7595V14.6444H42.7077C42.5041 15.3567 42.1175 15.8858 41.5273 16.2522C40.9778 16.5981 40.3266 16.761 39.5532 16.761C38.4542 16.761 37.5791 16.3743 36.8872 15.5806C36.2359 14.8276 35.9103 13.9118 35.9103 12.7924C35.9103 11.7138 36.2359 10.8184 36.9075 10.0857C37.5995 9.33271 38.4746 8.94603 39.5329 8.94603C40.8353 8.94603 41.8122 9.51587 42.4431 10.6555L44.8649 8.25408C44.5189 7.88776 44.1323 7.56214 43.6845 7.25687C42.4227 6.40211 41.0796 5.97473 39.6143 5.97473C37.6402 5.97473 35.9917 6.60562 34.6282 7.88776C33.2443 9.19025 32.532 10.8387 32.532 12.7924C32.532 14.7462 33.2239 16.3946 34.5875 17.7378C35.951 19.081 37.5995 19.7323 39.5736 19.7323C41.6087 19.7323 43.2775 19.0607 44.6207 17.6971C45.9639 16.3539 46.6355 14.6648 46.6355 12.6296V12.2837C46.6355 12.1615 46.6151 12.0598 46.6151 11.9784C46.5744 11.958 46.5337 11.958 46.493 11.9377Z" fill="#FF7600"/>
<path d="M8.57762 19.4676L4.97543 13.7693H4.93472V19.4676H1.5564V6.23926H4.93472V12.1819H4.97543L8.69973 6.23926H12.2409L7.86532 12.8331L12.5258 19.4473H8.57762V19.4676Z" fill="#FF7600"/>
<path d="M13.8076 19.4676V6.23926H17.1859V19.4473H13.8076V19.4676Z" fill="#FF7600"/>
<path d="M27.7893 19.4676L22.7625 11.4289L22.7218 11.4492L22.8236 19.4676H19.5674V6.23926H22.4776L27.5858 14.5426L27.6265 14.5019L27.4841 6.23926H30.7199V19.4473H27.7893V19.4676Z" fill="#FF7600"/>
<path d="M51.5799 9.21056V11.4696H55.4059V14.4409H51.5799V19.488H48.344V6.23926H55.5484V9.21056H51.5799Z" fill="#FF7600"/>
<path d="M92.1813 19.4676H87.5615V6.23926H91.9371C92.5883 6.23926 93.1581 6.27996 93.6466 6.34101C94.2164 6.42242 94.7252 6.54453 95.1933 6.70734C96.2312 7.07366 97.0859 7.74526 97.7779 8.70177C98.592 9.8211 98.999 11.205 98.999 12.8127C98.9786 17.2493 96.7196 19.4676 92.1813 19.4676ZM94.8473 10.2485C94.2978 9.55653 93.4634 9.21056 92.4051 9.21056H90.9398V16.4963H92.3848C93.4838 16.4963 94.3182 16.1504 94.8677 15.4788C95.3764 14.8682 95.6207 13.9931 95.6207 12.8738C95.6207 11.7545 95.3561 10.8997 94.8473 10.2485Z" fill="#FF7600"/>
<path d="M67.739 12.9145C67.739 13.9728 67.4134 14.8682 66.7418 15.6212C66.0499 16.3946 65.1951 16.7609 64.1368 16.7609C63.0989 16.7609 62.2238 16.3742 61.5319 15.5805C60.8806 14.8479 60.555 13.9524 60.555 12.8941C60.555 11.8359 60.8806 10.9404 61.5319 10.2078C62.2238 9.41407 63.0989 9.02739 64.1368 9.02739C64.1368 9.02739 64.1368 9.02739 64.1572 9.02739V6.05609C62.2238 6.05609 60.5753 6.70733 59.2322 8.03017C57.889 9.33266 57.197 10.9608 57.197 12.8738C57.197 12.8738 57.197 12.8738 57.197 12.8941C57.197 12.8941 57.197 12.8941 57.197 12.9145C57.197 14.8275 57.889 16.4556 59.2322 17.7581C60.5753 19.0606 62.2238 19.7322 64.1572 19.7322C66.5179 19.7322 68.3699 18.8367 69.7335 17.0255C70.1201 16.5167 70.4254 16.0079 70.5882 15.5398C70.9138 14.7054 71.0766 13.81 71.097 12.8738H67.739C67.739 12.8941 67.739 12.9145 67.739 12.9145Z" fill="#FF7600"/>
<path d="M86.2381 12.8942C86.2381 12.8738 86.2381 12.8942 86.2381 12.8942C86.2381 10.9608 85.5462 9.35305 84.203 8.05056C82.8598 6.74807 81.2113 6.07648 79.2779 6.07648V9.02742C79.2779 9.02742 79.2779 9.02742 79.2983 9.02742C80.3362 9.02742 81.2113 9.4141 81.9033 10.2078C82.5545 10.9405 82.8801 11.8359 82.8801 12.8942C82.8801 13.9525 82.5545 14.8479 81.9033 15.5806C81.2113 16.3743 80.3362 16.7609 79.2983 16.7609C78.24 16.7609 77.3649 16.3743 76.6933 15.6213C76.0217 14.8886 75.6961 13.9932 75.6961 12.9145C75.6961 12.8942 75.6961 12.8942 75.6961 12.8738H72.3381C72.3585 13.81 72.5213 14.7055 72.8469 15.5399C73.0301 16.0079 73.315 16.4964 73.7017 17.0255C75.0652 18.8368 76.9375 19.7322 79.2779 19.7322C81.2113 19.7322 82.8598 19.081 84.203 17.7582C85.5462 16.4557 86.2381 14.8276 86.2381 12.9145V12.8942Z" fill="#FF7600"/>
<path d="M73.702 8.09127L71.7076 4.67224L69.7132 8.09127L67.7188 4.67224V11.4899H71.7076H75.6761V4.67224L73.702 8.09127Z" fill="#FF7600"/>
<path d="M119.045 19.4067V11.836C119.045 10.5742 118.781 9.55667 118.231 8.80367C117.6 7.92856 116.685 7.50118 115.484 7.50118C114.263 7.50118 113.347 7.92856 112.736 8.80367C112.187 9.55667 111.922 10.5742 111.922 11.836V19.4067H110.233V11.836C110.233 10.5742 109.969 9.55667 109.419 8.80367C108.809 7.92856 107.893 7.50118 106.672 7.50118C105.451 7.50118 104.535 7.92856 103.924 8.80367C103.375 9.55667 103.11 10.5742 103.11 11.836V19.4067H101.441V6.23939H103.11V7.84715C103.884 6.62607 105.084 5.99518 106.692 5.99518C108.686 5.99518 110.152 6.82958 111.088 8.4984C112.146 6.82958 113.612 5.99518 115.484 5.99518C117.112 5.99518 118.414 6.54466 119.371 7.62329C120.287 8.66121 120.734 9.98404 120.734 11.6325V19.4067H119.045Z" fill="#0D3862"/>
<path d="M134.614 19.4066V17.1069H134.574C133.414 18.8571 131.724 19.7323 129.486 19.7323C127.512 19.7323 125.843 19.081 124.5 17.7582C123.136 16.4353 122.465 14.8072 122.465 12.8331C122.465 10.8794 123.157 9.2513 124.54 7.92846C125.904 6.62598 127.552 5.97473 129.506 5.97473C131.786 5.97473 133.495 6.84984 134.594 8.60006H134.635V6.2393H136.324V19.4066H134.614ZM133.21 9.08849C132.193 8.03022 130.951 7.48073 129.465 7.48073C127.919 7.48073 126.637 7.98952 125.619 9.02744C124.601 10.0654 124.093 11.3475 124.093 12.8942C124.093 14.4205 124.601 15.6823 125.619 16.6999C126.637 17.6971 127.919 18.2059 129.445 18.2059C130.91 18.2059 132.172 17.6768 133.19 16.6388C134.187 15.6009 134.696 14.3391 134.696 12.8738C134.696 11.4085 134.228 10.1468 133.21 9.08849Z" fill="#0D3862"/>
<path d="M143.426 7.76565C140.943 7.96916 139.682 9.292 139.682 11.7545V19.4066H138.013V6.2393H139.682V8.21338H139.722C140.068 7.41968 140.557 6.84984 141.208 6.50387C141.737 6.21895 142.47 6.05614 143.426 5.97473V7.76565Z" fill="#0D3862"/>
<path d="M151.546 5.99513H148.595V1.70099H146.927V5.99513H143.996V7.74534H146.927V19.4067H148.595V7.74534H151.546V5.99513Z" fill="#0D3862"/>
</g>
<defs>
<clipPath id="clip0_4454_173739">
<rect width="151.096" height="19.2" fill="white" transform="translate(0.930908 1.20001)"/>
</clipPath>
</defs>
</svg>
