<svg width="20" height="20" viewBox="0 0 20 20" fill="none" xmlns="http://www.w3.org/2000/svg">
<path d="M5.4165 9.58337C4.92405 9.58337 4.43641 9.48638 3.98144 9.29792C3.52647 9.10947 3.11307 8.83324 2.76485 8.48502C2.41663 8.1368 2.14041 7.72341 1.95196 7.26844C1.7635 6.81347 1.6665 6.32583 1.6665 5.83337C1.6665 5.34092 1.7635 4.85328 1.95196 4.39831C2.14041 3.94334 2.41663 3.52994 2.76485 3.18172C3.11307 2.8335 3.52647 2.55728 3.98144 2.36883C4.43641 2.18037 4.92405 2.08337 5.4165 2.08337C6.41107 2.08337 7.36489 2.47846 8.06815 3.18172C8.77142 3.88498 9.1665 4.83881 9.1665 5.83337C9.1665 6.82794 8.77142 7.78176 8.06815 8.48502C7.36489 9.18829 6.41107 9.58337 5.4165 9.58337ZM5.83317 17.9167C4.83861 17.9167 3.88478 17.5216 3.18152 16.8184C2.47826 16.1151 2.08317 15.1613 2.08317 14.1667C2.08317 13.1721 2.47826 12.2183 3.18152 11.5151C3.88478 10.8118 4.83861 10.4167 5.83317 10.4167C6.82773 10.4167 7.78156 10.8118 8.48482 11.5151C9.18808 12.2183 9.58317 13.1721 9.58317 14.1667C9.58317 15.1613 9.18808 16.1151 8.48482 16.8184C7.78156 17.5216 6.82773 17.9167 5.83317 17.9167ZM14.1665 9.58337C13.674 9.58337 13.1864 9.48638 12.7314 9.29792C12.2765 9.10947 11.8631 8.83324 11.5149 8.48502C11.1666 8.1368 10.8904 7.72341 10.702 7.26844C10.5135 6.81347 10.4165 6.32583 10.4165 5.83337C10.4165 5.34092 10.5135 4.85328 10.702 4.39831C10.8904 3.94334 11.1666 3.52994 11.5149 3.18172C11.8631 2.8335 12.2765 2.55728 12.7314 2.36883C13.1864 2.18037 13.674 2.08337 14.1665 2.08337C15.1611 2.08337 16.1149 2.47846 16.8182 3.18172C17.5214 3.88498 17.9165 4.83881 17.9165 5.83337C17.9165 6.82794 17.5214 7.78176 16.8182 8.48502C16.1149 9.18829 15.1611 9.58337 14.1665 9.58337ZM14.1665 17.9167C13.1719 17.9167 12.2181 17.5216 11.5149 16.8184C10.8116 16.1151 10.4165 15.1613 10.4165 14.1667C10.4165 13.1721 10.8116 12.2183 11.5149 11.5151C12.2181 10.8118 13.1719 10.4167 14.1665 10.4167C15.1611 10.4167 16.1149 10.8118 16.8182 11.5151C17.5214 12.2183 17.9165 13.1721 17.9165 14.1667C17.9165 15.1613 17.5214 16.1151 16.8182 16.8184C16.1149 17.5216 15.1611 17.9167 14.1665 17.9167ZM5.4165 7.91671C5.96904 7.91671 6.49894 7.69721 6.88964 7.30651C7.28034 6.91581 7.49984 6.38591 7.49984 5.83337C7.49984 5.28084 7.28034 4.75094 6.88964 4.36023C6.49894 3.96953 5.96904 3.75004 5.4165 3.75004C4.86397 3.75004 4.33407 3.96953 3.94336 4.36023C3.55266 4.75094 3.33317 5.28084 3.33317 5.83337C3.33317 6.38591 3.55266 6.91581 3.94336 7.30651C4.33407 7.69721 4.86397 7.91671 5.4165 7.91671ZM5.83317 16.25C6.3857 16.25 6.91561 16.0305 7.30631 15.6398C7.69701 15.2491 7.9165 14.7192 7.9165 14.1667C7.9165 13.6142 7.69701 13.0843 7.30631 12.6936C6.91561 12.3029 6.3857 12.0834 5.83317 12.0834C5.28064 12.0834 4.75073 12.3029 4.36003 12.6936C3.96933 13.0843 3.74984 13.6142 3.74984 14.1667C3.74984 14.7192 3.96933 15.2491 4.36003 15.6398C4.75073 16.0305 5.28064 16.25 5.83317 16.25ZM14.1665 7.91671C14.719 7.91671 15.2489 7.69721 15.6396 7.30651C16.0303 6.91581 16.2498 6.38591 16.2498 5.83337C16.2498 5.28084 16.0303 4.75094 15.6396 4.36023C15.2489 3.96953 14.719 3.75004 14.1665 3.75004C13.614 3.75004 13.0841 3.96953 12.6934 4.36023C12.3027 4.75094 12.0832 5.28084 12.0832 5.83337C12.0832 6.38591 12.3027 6.91581 12.6934 7.30651C13.0841 7.69721 13.614 7.91671 14.1665 7.91671ZM14.1665 16.25C14.719 16.25 15.2489 16.0305 15.6396 15.6398C16.0303 15.2491 16.2498 14.7192 16.2498 14.1667C16.2498 13.6142 16.0303 13.0843 15.6396 12.6936C15.2489 12.3029 14.719 12.0834 14.1665 12.0834C13.614 12.0834 13.0841 12.3029 12.6934 12.6936C12.3027 13.0843 12.0832 13.6142 12.0832 14.1667C12.0832 14.7192 12.3027 15.2491 12.6934 15.6398C13.0841 16.0305 13.614 16.25 14.1665 16.25Z" fill="#3280F6"/>
</svg>
