<svg width="186" height="50" viewBox="0 0 186 50" fill="none" xmlns="http://www.w3.org/2000/svg">
<path d="M20.8692 47.9999C20.7794 47.9999 20.6897 47.9933 20.6008 47.9802C18.3339 47.6579 16.125 47.0089 14.0425 46.0533C13.5865 45.8429 13.2322 45.4594 13.0573 44.9869C12.8824 44.5144 12.9012 43.9915 13.1096 43.533C13.318 43.0744 13.699 42.7176 14.169 42.5409C14.6389 42.3642 15.1595 42.3819 15.6164 42.5903C17.3682 43.3941 19.2263 43.9401 21.1332 44.2114C21.6084 44.2783 22.0406 44.5237 22.3426 44.8983C22.6447 45.2728 22.794 45.7485 22.7605 46.2294C22.727 46.7102 22.5131 47.1604 22.1621 47.489C21.8111 47.8176 21.349 48.0002 20.8692 47.9999ZM27.1553 47.9961C26.6761 47.9957 26.2148 47.813 25.8644 47.4846C25.5139 47.1563 25.3004 46.7068 25.2666 46.2265C25.2329 45.7463 25.3816 45.2711 25.6827 44.8966C25.9838 44.5221 26.415 44.2761 26.8894 44.2082C28.7957 43.9346 30.6528 43.3867 32.4037 42.5814C32.8606 42.3711 33.3819 42.3517 33.853 42.5275C34.3241 42.7033 34.7064 43.0599 34.9158 43.5189C35.1252 43.9778 35.1445 44.5016 34.9695 44.9748C34.7945 45.4481 34.4395 45.8322 33.9827 46.0425C31.9012 47.0001 29.6932 47.6514 27.4269 47.9764C27.3378 47.9895 27.2479 47.996 27.1578 47.9961H27.1553ZM9.53682 42.8086C9.08152 42.809 8.64142 42.644 8.29766 42.3441C6.56796 40.8401 5.0602 39.0964 3.81978 37.1655C3.68488 36.9554 3.59248 36.7207 3.54786 36.4748C3.50325 36.2289 3.50728 35.9765 3.55974 35.7322C3.6122 35.4878 3.71206 35.2562 3.85361 35.0506C3.99516 34.845 4.17563 34.6695 4.38473 34.534C4.59382 34.3984 4.82743 34.3056 5.07223 34.2608C5.31703 34.216 5.56822 34.22 5.81146 34.2727C6.0547 34.3254 6.28523 34.4257 6.48988 34.5679C6.69453 34.7101 6.86929 34.8914 7.00419 35.1015C8.04952 36.7283 9.31993 38.1975 10.7772 39.4648C11.0698 39.7188 11.278 40.0566 11.3739 40.4328C11.4699 40.8091 11.4489 41.2059 11.3139 41.5698C11.1789 41.9338 10.9363 42.2475 10.6186 42.469C10.3009 42.6904 9.92346 42.8089 9.53682 42.8086ZM38.482 42.7927C38.0959 42.7927 37.7191 42.6742 37.4019 42.453C37.0847 42.2319 36.8423 41.9187 36.7072 41.5554C36.5721 41.1921 36.5507 40.796 36.6458 40.4201C36.741 40.0442 36.9482 39.7065 37.2397 39.4521C38.6959 38.1828 39.9648 36.7117 41.0083 35.0831C41.2803 34.6585 41.709 34.3599 42.2001 34.2529C42.6912 34.1458 43.2045 34.2392 43.6272 34.5124C44.0498 34.7856 44.347 35.2162 44.4536 35.7096C44.5601 36.203 44.4672 36.7187 44.1953 37.1433C42.9571 39.0758 41.4513 40.8212 39.7231 42.327C39.3789 42.628 38.9377 42.7934 38.4814 42.7927H38.482ZM2.78968 32.2952C2.38052 32.295 1.98242 32.1618 1.65489 31.9154C1.32736 31.6691 1.08801 31.3229 0.972629 30.9285C0.32849 28.7236 0.000976875 26.4375 0 24.1395C0 23.6347 0.199622 23.1506 0.554954 22.7936C0.910285 22.4366 1.39222 22.2361 1.89473 22.2361C2.39725 22.2361 2.87918 22.4366 3.23451 22.7936C3.58984 23.1506 3.78946 23.6347 3.78946 24.1395C3.79093 26.0755 4.0674 28.0013 4.61051 29.8588C4.69292 30.1426 4.70838 30.4418 4.65566 30.7327C4.60294 31.0236 4.48349 31.2981 4.30679 31.5346C4.13009 31.771 3.90099 31.9628 3.63765 32.0949C3.37432 32.2269 3.08398 32.2955 2.78968 32.2952ZM45.2172 32.2717C44.9227 32.2719 44.6322 32.2032 44.3688 32.0709C44.1053 31.9387 43.8762 31.7466 43.6996 31.5098C43.523 31.2731 43.4037 30.9983 43.3513 30.7071C43.2989 30.416 43.3147 30.1167 43.3976 29.8328C43.9385 27.9739 44.2122 26.047 44.2104 24.1104V24.0704C44.2094 23.8204 44.2574 23.5727 44.3517 23.3414C44.446 23.1101 44.5848 22.8997 44.76 22.7222C44.9352 22.5448 45.1436 22.4037 45.3731 22.3071C45.6026 22.2105 45.8488 22.1603 46.0976 22.1593H46.1051C46.6063 22.1593 47.0871 22.3588 47.4423 22.7141C47.7974 23.0695 47.9979 23.5517 47.9999 24.0552V24.1104C48.0015 26.408 47.6763 28.6941 47.0342 30.8993C46.9194 31.2943 46.6803 31.6412 46.3527 31.8882C46.0251 32.1351 45.6267 32.2688 45.2172 32.2692V32.2717ZM2.77894 19.7819C2.48461 19.7821 2.19428 19.7135 1.93097 19.5814C1.66765 19.4493 1.43859 19.2574 1.26194 19.0209C1.0853 18.7844 0.965929 18.5098 0.913299 18.2188C0.860668 17.9279 0.876225 17.6287 0.958734 17.3449C1.59982 15.1375 2.55313 13.0341 3.78946 11.099C4.06099 10.6742 4.48938 10.3752 4.98038 10.2677C5.22351 10.2144 5.47469 10.2098 5.71958 10.2541C5.96447 10.2984 6.19829 10.3907 6.40767 10.5258C6.61705 10.6608 6.7979 10.836 6.93989 11.0413C7.08189 11.2466 7.18224 11.4779 7.23523 11.7222C7.28822 11.9664 7.2928 12.2187 7.24872 12.4648C7.20463 12.7108 7.11274 12.9457 6.9783 13.156C5.93681 14.7839 5.13385 16.5538 4.59409 18.4114C4.47949 18.8062 4.24071 19.153 3.91351 19.4001C3.5863 19.6471 3.18826 19.7811 2.77894 19.7819ZM45.2026 19.7128C44.7938 19.7126 44.396 19.5796 44.0687 19.3336C43.7413 19.0876 43.5019 18.7419 43.3862 18.348C42.8405 16.4925 42.0323 14.7254 40.9862 13.1008C40.7316 12.6774 40.651 12.1711 40.7616 11.6891C40.8722 11.207 41.1652 10.7872 41.5786 10.5184C41.992 10.2497 42.4933 10.1532 42.9763 10.2494C43.4593 10.3456 43.8861 10.6269 44.1662 11.0337C45.4102 12.9642 46.3712 15.0645 47.0197 17.27C47.162 17.7541 47.1071 18.2752 46.8671 18.7187C46.627 19.1622 46.2214 19.4917 45.7395 19.6347C45.5649 19.6863 45.3839 19.7125 45.202 19.7128H45.2026ZM9.50208 9.25015C9.11613 9.25022 8.73936 9.13187 8.42219 8.91096C8.10501 8.69004 7.86255 8.37709 7.72726 8.01397C7.59196 7.65085 7.57027 7.25488 7.6651 6.87903C7.75992 6.50319 7.96674 6.16541 8.25787 5.91087C9.98396 4.4019 11.9159 3.1486 13.9951 2.18899C14.2223 2.07688 14.4695 2.01162 14.7221 1.99707C14.9748 1.98251 15.2278 2.01896 15.4662 2.10425C15.7046 2.18954 15.9236 2.32195 16.1103 2.49366C16.2969 2.66537 16.4474 2.8729 16.5529 3.10401C16.6584 3.33511 16.7167 3.58511 16.7245 3.83923C16.7322 4.09336 16.6892 4.34647 16.5979 4.58361C16.5067 4.82076 16.3691 5.03714 16.1932 5.21999C16.0174 5.40283 15.8068 5.54843 15.5741 5.64819C13.8231 6.45696 12.196 7.51259 10.7419 8.78317C10.3983 9.08419 9.95793 9.25008 9.50208 9.25015ZM38.4441 9.20383C37.9894 9.2043 37.5498 9.03983 37.2062 8.74066C35.7483 7.47436 34.1177 6.42382 32.3639 5.62091C31.9183 5.40446 31.5747 5.02144 31.4066 4.55377C31.2385 4.0861 31.2592 3.57091 31.4644 3.1184C31.6695 2.66588 32.0427 2.31197 32.5043 2.13235C32.9658 1.95274 33.479 1.96168 33.934 2.15727C36.0157 3.11038 37.951 4.35748 39.6814 5.86074C39.9739 6.11465 40.1821 6.45238 40.278 6.82859C40.374 7.2048 40.3531 7.60149 40.2182 7.96543C40.0832 8.32936 39.8407 8.64313 39.5231 8.8646C39.2056 9.08608 38.8282 9.20467 38.4416 9.20446L38.4441 9.20383ZM20.8168 4.03534C20.3374 4.03546 19.8758 3.85305 19.525 3.52486C19.1742 3.19667 18.9603 2.7471 18.9263 2.26674C18.8924 1.78637 19.0409 1.31094 19.342 0.936233C19.6431 0.561528 20.0744 0.31541 20.549 0.247476C22.8121 -0.0787978 25.1097 -0.0824289 27.3738 0.23669C27.6222 0.269184 27.8617 0.350834 28.0785 0.476919C28.2953 0.603003 28.485 0.771018 28.6368 0.971244C28.7885 1.17147 28.8992 1.39993 28.9625 1.64341C29.0257 1.8869 29.0403 2.14057 29.0054 2.38975C28.9704 2.63893 28.8866 2.87867 28.7589 3.09512C28.6311 3.31156 28.4619 3.50041 28.261 3.65072C28.0601 3.80104 27.8315 3.90986 27.5885 3.97086C27.3455 4.03187 27.0929 4.04386 26.8452 4.00615C24.9355 3.73838 22.9978 3.74159 21.089 4.01567C20.9988 4.02877 20.9079 4.03535 20.8168 4.03534Z" fill="url(#paint0_linear_8813_220456)"/>
<path d="M23.9995 29.9413C27.2051 29.9413 29.8037 27.3307 29.8037 24.1104C29.8037 20.8901 27.2051 18.2795 23.9995 18.2795C20.7939 18.2795 18.1953 20.8901 18.1953 24.1104C18.1953 27.3307 20.7939 29.9413 23.9995 29.9413Z" fill="url(#paint1_linear_8813_220456)"/>
<path d="M23.9999 38.7035C22.4785 38.7049 20.9664 38.466 19.5189 37.9954C19.0408 37.8398 18.6439 37.4998 18.4153 37.0502C18.3022 36.8276 18.2338 36.5848 18.214 36.3356C18.1943 36.0864 18.2236 35.8358 18.3003 35.598C18.3769 35.3602 18.4995 35.1399 18.6609 34.9497C18.8223 34.7595 19.0195 34.6031 19.2411 34.4894C19.6886 34.2598 20.2086 34.2182 20.6867 34.3738C22.8441 35.073 25.1658 35.073 27.3233 34.3738C27.8006 34.2199 28.3191 34.2624 28.7653 34.4918C29.2115 34.7212 29.549 35.1189 29.704 35.5977C29.859 36.0766 29.8187 36.5977 29.5921 37.0468C29.3655 37.496 28.9709 37.8366 28.4949 37.9941C27.043 38.4664 25.526 38.7058 23.9999 38.7035ZM13.788 33.4817C13.4887 33.4827 13.1934 33.4122 12.9265 33.2762C12.6596 33.1402 12.4286 32.9425 12.2526 32.6994C10.4419 30.2112 9.4684 27.2078 9.47365 24.1256C9.47365 23.6208 9.67328 23.1366 10.0286 22.7797C10.3839 22.4227 10.8659 22.2222 11.3684 22.2222C11.8709 22.2222 12.3528 22.4227 12.7082 22.7797C13.0635 23.1366 13.2631 23.6208 13.2631 24.1256C13.2605 26.4012 13.9799 28.6184 15.317 30.4552C15.523 30.7389 15.6469 31.0744 15.6749 31.4245C15.7029 31.7746 15.634 32.1256 15.4757 32.4387C15.3174 32.7519 15.076 33.0149 14.7781 33.1988C14.4802 33.3826 14.1376 33.4801 13.788 33.4804V33.4817ZM34.2201 33.4709C33.8707 33.4707 33.5281 33.3734 33.2303 33.1898C32.9324 33.0062 32.6909 32.7434 32.5325 32.4305C32.3741 32.1176 32.3048 31.7668 32.3325 31.4169C32.3601 31.0669 32.4836 30.7315 32.6892 30.4476C34.0255 28.6079 34.7428 26.3878 34.7367 24.1104V24.0831C34.7367 23.5783 34.9364 23.0941 35.2917 22.7372C35.647 22.3802 36.129 22.1796 36.6315 22.1796C37.134 22.1796 37.6159 22.3802 37.9713 22.7372C38.3266 23.0941 38.5262 23.5783 38.5262 24.0831V24.1104C38.5339 27.1929 37.5626 30.1975 35.7536 32.6873C35.5777 32.9302 35.347 33.1278 35.0805 33.264C34.814 33.4002 34.5191 33.4711 34.2201 33.4709ZM13.7684 18.5682C13.4189 18.5681 13.0762 18.4709 12.7783 18.2873C12.4804 18.1037 12.2388 17.841 12.0803 17.5281C11.9218 17.2151 11.8525 16.8643 11.8801 16.5143C11.9077 16.1643 12.0312 15.8288 12.2368 15.5449C14.0423 13.0562 16.5792 11.1991 19.4905 10.2349C19.9621 10.0989 20.4679 10.152 20.9014 10.383C21.3348 10.6141 21.6622 11.005 21.8145 11.4737C21.9668 11.9423 21.9321 12.452 21.7179 12.8955C21.5037 13.339 21.1265 13.6817 20.6658 13.8514C18.5135 14.5654 16.6381 15.9395 15.3037 17.7801C15.1281 18.0241 14.8974 18.2228 14.6305 18.3598C14.3635 18.4968 14.0681 18.5682 13.7684 18.5682ZM34.2068 18.5352C33.9084 18.5355 33.6141 18.4649 33.348 18.3293C33.0818 18.1937 32.8513 17.9968 32.6753 17.7548C31.3355 15.9181 29.4559 14.55 27.3012 13.8432C27.0644 13.7664 26.845 13.6435 26.6554 13.4815C26.4659 13.3196 26.31 13.1217 26.1966 12.8992C26.0832 12.6767 26.0146 12.4339 25.9946 12.1848C25.9746 11.9356 26.0036 11.6849 26.08 11.4471C26.1565 11.2092 26.2788 10.9887 26.44 10.7984C26.6012 10.608 26.7982 10.4513 27.0197 10.3374C27.2412 10.2235 27.4828 10.1545 27.7308 10.1344C27.9789 10.1143 28.2284 10.1435 28.4652 10.2203C31.3793 11.1758 33.9218 13.0254 35.7346 15.5087C35.941 15.7923 36.0651 16.1278 36.0934 16.478C36.1216 16.8281 36.0528 17.1793 35.8947 17.4926C35.7365 17.806 35.4951 18.0692 35.1972 18.2532C34.8993 18.4372 34.5565 18.5348 34.2068 18.5352Z" fill="url(#paint2_linear_8813_220456)"/>
<path d="M76.1847 25.376C74.0398 25.376 72.0317 24.8228 70.1606 23.7165C68.2894 22.5872 66.7948 21.0775 65.6767 19.1876C64.5586 17.2976 63.9995 15.2579 63.9995 13.0683C63.9995 10.8787 64.5586 8.85048 65.6767 6.98358C66.7948 5.09364 68.2894 3.59551 70.1606 2.4892C72.0317 1.35984 74.0398 0.79516 76.1847 0.79516C78.3525 0.79516 80.372 1.35984 82.2431 2.4892C84.1143 3.59551 85.5975 5.09364 86.6928 6.98358C87.8109 8.85048 88.37 10.8787 88.37 13.0683C88.37 15.2579 87.8109 17.2976 86.6928 19.1876C85.5975 21.0775 84.1143 22.5872 82.2431 23.7165C80.372 24.8228 78.3525 25.376 76.1847 25.376ZM76.1847 22.1608C77.7364 22.1608 79.174 21.7459 80.4975 20.9162C81.821 20.0864 82.8706 18.9801 83.6465 17.5972C84.4451 16.1913 84.8445 14.6817 84.8445 13.0683C84.8445 11.4549 84.4451 9.95679 83.6465 8.5739C82.8706 7.19102 81.821 6.08471 80.4975 5.25497C79.174 4.42524 77.7364 4.01038 76.1847 4.01038C74.6559 4.01038 73.2183 4.42524 71.872 5.25497C70.5485 6.08471 69.4874 7.19102 68.6888 8.5739C67.9129 9.95679 67.525 11.4549 67.525 13.0683C67.525 14.6817 67.9129 16.1913 68.6888 17.5972C69.4874 18.9801 70.5485 20.0864 71.872 20.9162C73.2183 21.7459 74.6559 22.1608 76.1847 22.1608Z" fill="#4A5568"/>
<path d="M100.987 6.67243C102.265 6.67243 103.406 6.96053 104.41 7.53674C105.414 8.11294 106.19 8.93115 106.737 9.99136C107.308 11.0285 107.593 12.227 107.593 13.5869V24.9611H104.273V14.1746C104.273 12.8378 103.896 11.7545 103.143 10.9248C102.39 10.072 101.409 9.64564 100.2 9.64564C99.3099 9.64564 98.4884 9.84155 97.7354 10.2334C96.9824 10.6021 96.3891 11.1092 95.9555 11.7545C95.522 12.3999 95.3052 13.1029 95.3052 13.8634V24.9611H91.9508V7.0873H95.3052V9.71479C95.83 8.79286 96.6059 8.05532 97.6327 7.50217C98.6596 6.94901 99.7777 6.67243 100.987 6.67243Z" fill="#4A5568"/>
<path d="M119.452 22.5411C120.434 22.5411 121.415 22.3567 122.396 21.9879C123.377 21.5961 124.153 21.1006 124.724 20.5013L126.709 22.6102C125.933 23.4399 124.86 24.1083 123.491 24.6154C122.145 25.1225 120.833 25.376 119.555 25.376C117.912 25.376 116.395 24.9726 115.003 24.166C113.611 23.3593 112.493 22.2414 111.648 20.8125C110.827 19.3835 110.416 17.7701 110.416 15.9724C110.416 14.2207 110.804 12.6419 111.58 11.236C112.379 9.80698 113.451 8.68914 114.797 7.88246C116.166 7.07578 117.661 6.67243 119.281 6.67243C121.061 6.67243 122.59 7.09882 123.868 7.9516C125.168 8.80439 126.15 10.0144 126.811 11.5817C127.496 13.149 127.838 14.9928 127.838 17.1132H113.736C113.942 18.7036 114.558 20.0058 115.585 21.0199C116.634 22.034 117.924 22.5411 119.452 22.5411ZM119.384 9.50735C117.969 9.50735 116.737 9.96832 115.687 10.8902C114.66 11.8122 114.022 13.0452 113.77 14.5895H124.552C124.37 13.0913 123.834 11.8698 122.944 10.9248C122.054 9.97984 120.867 9.50735 119.384 9.50735Z" fill="#4A5568"/>
<path d="M134.899 21.7113H147.358V24.9611H131.442V1.21003H134.899V21.7113Z" fill="#4A5568"/>
<path d="M150.781 7.0873H154.135V24.9611H150.781V7.0873ZM152.458 4.11409C151.887 4.11409 151.397 3.90666 150.986 3.49179C150.598 3.07692 150.404 2.59291 150.404 2.03976C150.404 1.4866 150.598 1.01412 150.986 0.6223C151.397 0.207433 151.887 0 152.458 0C153.005 0 153.473 0.207433 153.861 0.6223C154.272 1.01412 154.477 1.4866 154.477 2.03976C154.477 2.59291 154.272 3.07692 153.861 3.49179C153.473 3.90666 153.005 4.11409 152.458 4.11409Z" fill="#4A5568"/>
<path d="M163.031 7.0873H167.207V9.99136H163.031V24.9611H159.711V9.99136H157.076V7.0873H159.711V4.94382C159.711 3.51484 160.145 2.35091 161.012 1.45203C161.879 0.530108 162.997 0.0691455 164.366 0.0691455C165.005 0.0691455 165.633 0.184386 166.249 0.414867C166.888 0.645348 167.447 0.956498 167.926 1.34832L166.659 3.63008C166.477 3.4457 166.226 3.29588 165.906 3.18064C165.587 3.04235 165.245 2.97321 164.88 2.97321C164.378 2.97321 163.944 3.18064 163.579 3.59551C163.214 3.98733 163.031 4.49439 163.031 5.11669V7.0873Z" fill="#4A5568"/>
<path d="M177.614 22.5411C178.595 22.5411 179.576 22.3567 180.557 21.9879C181.538 21.5961 182.314 21.1006 182.885 20.5013L184.87 22.6102C184.094 23.4399 183.022 24.1083 181.652 24.6154C180.306 25.1225 178.994 25.376 177.716 25.376C176.073 25.376 174.556 24.9726 173.164 24.166C171.772 23.3593 170.654 22.2414 169.81 20.8125C168.988 19.3835 168.577 17.7701 168.577 15.9724C168.577 14.2207 168.965 12.6419 169.741 11.236C170.54 9.80698 171.612 8.68914 172.959 7.88246C174.328 7.07578 175.822 6.67243 177.442 6.67243C179.222 6.67243 180.751 7.09882 182.029 7.9516C183.33 8.80439 184.311 10.0144 184.973 11.5817C185.657 13.149 185.999 14.9928 185.999 17.1132H171.897C172.103 18.7036 172.719 20.0058 173.746 21.0199C174.795 22.034 176.085 22.5411 177.614 22.5411ZM177.545 9.50735C176.13 9.50735 174.898 9.96832 173.848 10.8902C172.822 11.8122 172.183 13.0452 171.932 14.5895H182.714C182.531 13.0913 181.995 11.8698 181.105 10.9248C180.215 9.97984 179.028 9.50735 177.545 9.50735Z" fill="#4A5568"/>
<path d="M65.5669 46.6508V36.8326H67.0483V41.0993H71.943V36.8326H73.4291V46.6508H71.943V42.3697H67.0483V46.6508H65.5669Z" fill="#718096"/>
<path d="M77.6143 46.8138C77.1477 46.8138 76.7258 46.7275 76.3487 46.5549C75.9715 46.3791 75.6727 46.1251 75.4522 45.7927C75.2349 45.4603 75.1262 45.0528 75.1262 44.5702C75.1262 44.1547 75.2061 43.8127 75.3659 43.5443C75.5257 43.2758 75.7414 43.0633 76.0131 42.9067C76.2848 42.7501 76.5884 42.6318 76.924 42.5519C77.2595 42.472 77.6015 42.4113 77.9499 42.3697C78.3909 42.3186 78.7489 42.2771 79.0237 42.2451C79.2986 42.2099 79.4984 42.154 79.623 42.0773C79.7476 42.0006 79.81 41.8759 79.81 41.7034V41.6698C79.81 41.2511 79.6917 40.9267 79.4552 40.6966C79.2219 40.4665 78.8735 40.3514 78.4101 40.3514C77.9275 40.3514 77.5472 40.4585 77.2691 40.6726C76.9943 40.8836 76.8041 41.1185 76.6986 41.3774L75.3515 41.0706C75.5113 40.6231 75.7446 40.262 76.0514 39.9871C76.3615 39.709 76.7178 39.5077 77.1205 39.3831C77.5232 39.2552 77.9467 39.1913 78.3909 39.1913C78.685 39.1913 78.9966 39.2264 79.3258 39.2968C79.6582 39.3639 79.9682 39.4885 80.2558 39.6707C80.5466 39.8529 80.7847 40.1133 80.9701 40.4521C81.1555 40.7877 81.2482 41.224 81.2482 41.7609V46.6508H79.8483V45.6441H79.7908C79.6981 45.8294 79.5591 46.0116 79.3737 46.1906C79.1883 46.3696 78.9502 46.5182 78.6594 46.6364C78.3686 46.7547 78.0202 46.8138 77.6143 46.8138ZM77.9259 45.6632C78.3222 45.6632 78.661 45.5849 78.9422 45.4283C79.2267 45.2717 79.4424 45.0672 79.5894 44.8147C79.7397 44.559 79.8148 44.2857 79.8148 43.9949V43.0457C79.7636 43.0968 79.6645 43.1448 79.5175 43.1895C79.3737 43.2311 79.2091 43.2678 79.0237 43.2998C78.8384 43.3285 78.6578 43.3557 78.482 43.3813C78.3062 43.4036 78.1592 43.4228 78.041 43.4388C77.7629 43.474 77.5088 43.5331 77.2787 43.6162C77.0518 43.6993 76.8696 43.8191 76.7322 43.9757C76.598 44.1291 76.5308 44.3337 76.5308 44.5894C76.5308 44.9441 76.6619 45.2126 76.924 45.3948C77.186 45.5737 77.52 45.6632 77.9259 45.6632ZM77.9067 38.3044L76.4254 36.0943H77.9355L79.0525 38.3044H77.9067Z" fill="#718096"/>
<path d="M84.5908 42.2786V46.6508H83.1574V39.2872H84.5333V40.4857H84.6244C84.7938 40.0958 85.059 39.7826 85.4202 39.546C85.7845 39.3095 86.2432 39.1913 86.7961 39.1913C87.2978 39.1913 87.7373 39.2968 88.1144 39.5077C88.4916 39.7154 88.784 40.0255 88.9917 40.4377C89.1995 40.85 89.3033 41.3598 89.3033 41.967V46.6508H87.8699V42.1396C87.8699 41.6059 87.7309 41.1888 87.4528 40.8884C87.1748 40.5848 86.7929 40.4329 86.3071 40.4329C85.9747 40.4329 85.6791 40.5049 85.4202 40.6487C85.1645 40.7925 84.9615 41.0034 84.8113 41.2815C84.6643 41.5563 84.5908 41.8887 84.5908 42.2786Z" fill="#718096"/>
<path d="M94.3131 49.5656C93.7282 49.5656 93.2249 49.4889 92.803 49.3355C92.3843 49.1821 92.0423 48.9791 91.7771 48.7266C91.5118 48.4741 91.3136 48.1977 91.1826 47.8973L92.4147 47.3891C92.501 47.5297 92.616 47.6783 92.7598 47.8349C92.9069 47.9947 93.105 48.1306 93.3543 48.2424C93.6068 48.3543 93.9312 48.4102 94.3275 48.4102C94.8708 48.4102 95.3199 48.2776 95.6746 48.0123C96.0294 47.7502 96.2068 47.3316 96.2068 46.7563V45.3085H96.1157C96.0294 45.4651 95.9047 45.6393 95.7417 45.831C95.5819 46.0228 95.3614 46.189 95.0802 46.3296C94.7989 46.4702 94.433 46.5405 93.9823 46.5405C93.4006 46.5405 92.8765 46.4047 92.4099 46.133C91.9465 45.8582 91.5789 45.4539 91.3073 44.9202C91.0388 44.3832 90.9046 43.7232 90.9046 42.9402C90.9046 42.1572 91.0372 41.486 91.3025 40.9267C91.5709 40.3674 91.9385 39.9392 92.4051 39.6419C92.8717 39.3415 93.4006 39.1913 93.9919 39.1913C94.4489 39.1913 94.8181 39.268 95.0993 39.4214C95.3806 39.5716 95.5995 39.7474 95.7561 39.9487C95.9159 40.1501 96.039 40.3275 96.1253 40.4809H96.2307V39.2872H97.6354V46.8138C97.6354 47.4466 97.4884 47.966 97.1943 48.3719C96.9003 48.7778 96.5024 49.0782 96.0006 49.2731C95.502 49.4681 94.9395 49.5656 94.3131 49.5656ZM94.2987 45.3516C94.711 45.3516 95.0594 45.2557 95.3438 45.064C95.6315 44.869 95.8488 44.591 95.9958 44.2298C96.146 43.8655 96.2211 43.4292 96.2211 42.921C96.2211 42.4257 96.1476 41.9894 96.0006 41.6123C95.8536 41.2351 95.6379 40.9411 95.3534 40.7302C95.069 40.516 94.7174 40.409 94.2987 40.409C93.8673 40.409 93.5077 40.5208 93.2201 40.7446C92.9324 40.9651 92.7151 41.2655 92.5681 41.6458C92.4243 42.0262 92.3523 42.4512 92.3523 42.921C92.3523 43.4036 92.4259 43.8271 92.5729 44.1915C92.7199 44.5558 92.9372 44.8403 93.2249 45.0448C93.5157 45.2493 93.8737 45.3516 94.2987 45.3516Z" fill="#718096"/>
<path d="M106.232 46.7994C105.52 46.7994 104.906 46.638 104.391 46.3152C103.88 45.9892 103.487 45.5402 103.212 44.9681C102.937 44.396 102.8 43.7408 102.8 43.0025C102.8 42.2547 102.94 41.5947 103.222 41.0226C103.503 40.4473 103.899 39.9983 104.411 39.6755C104.922 39.3527 105.524 39.1913 106.218 39.1913C106.777 39.1913 107.276 39.2952 107.714 39.5029C108.151 39.7074 108.505 39.9951 108.773 40.3658C109.045 40.7366 109.206 41.1696 109.257 41.665H107.862C107.786 41.3198 107.61 41.0226 107.335 40.7733C107.063 40.524 106.699 40.3994 106.242 40.3994C105.842 40.3994 105.492 40.5049 105.192 40.7158C104.895 40.9235 104.663 41.2208 104.497 41.6075C104.331 41.991 104.248 42.4448 104.248 42.969C104.248 43.5059 104.329 43.9693 104.492 44.3593C104.655 44.7492 104.885 45.0512 105.182 45.2653C105.483 45.4795 105.836 45.5865 106.242 45.5865C106.514 45.5865 106.76 45.537 106.98 45.4379C107.204 45.3356 107.391 45.1902 107.541 45.0017C107.694 44.8131 107.802 44.5862 107.862 44.3209H109.257C109.206 44.7971 109.051 45.2222 108.792 45.5961C108.533 45.9701 108.187 46.2641 107.752 46.4782C107.321 46.6924 106.814 46.7994 106.232 46.7994Z" fill="#718096"/>
<path d="M112.224 42.2786V46.6508H110.79V36.8326H112.204V40.4857H112.296C112.468 40.0894 112.732 39.7746 113.087 39.5413C113.441 39.3079 113.905 39.1913 114.477 39.1913C114.982 39.1913 115.423 39.2952 115.8 39.5029C116.18 39.7106 116.474 40.0207 116.682 40.4329C116.893 40.842 116.998 41.3534 116.998 41.967V46.6508H115.565V42.1396C115.565 41.5995 115.426 41.1808 115.148 40.8836C114.87 40.5832 114.483 40.4329 113.988 40.4329C113.649 40.4329 113.345 40.5049 113.077 40.6487C112.812 40.7925 112.602 41.0034 112.449 41.2815C112.299 41.5563 112.224 41.8887 112.224 42.2786Z" fill="#718096"/>
<path d="M121.054 46.8138C120.588 46.8138 120.166 46.7275 119.789 46.5549C119.411 46.3791 119.113 46.1251 118.892 45.7927C118.675 45.4603 118.566 45.0528 118.566 44.5702C118.566 44.1547 118.646 43.8127 118.806 43.5443C118.966 43.2758 119.181 43.0633 119.453 42.9067C119.725 42.7501 120.028 42.6318 120.364 42.5519C120.699 42.472 121.041 42.4113 121.39 42.3697C121.831 42.3186 122.189 42.2771 122.464 42.2451C122.739 42.2099 122.938 42.154 123.063 42.0773C123.188 42.0006 123.25 41.8759 123.25 41.7034V41.6698C123.25 41.2511 123.132 40.9267 122.895 40.6966C122.662 40.4665 122.313 40.3514 121.85 40.3514C121.367 40.3514 120.987 40.4585 120.709 40.6726C120.434 40.8836 120.244 41.1185 120.139 41.3774L118.791 41.0706C118.951 40.6231 119.185 40.262 119.491 39.9871C119.801 39.709 120.158 39.5077 120.56 39.3831C120.963 39.2552 121.387 39.1913 121.831 39.1913C122.125 39.1913 122.436 39.2264 122.766 39.2968C123.098 39.3639 123.408 39.4885 123.696 39.6707C123.987 39.8529 124.225 40.1133 124.41 40.4521C124.595 40.7877 124.688 41.224 124.688 41.7609V46.6508H123.288V45.6441H123.231C123.138 45.8294 122.999 46.0116 122.814 46.1906C122.628 46.3696 122.39 46.5182 122.099 46.6364C121.808 46.7547 121.46 46.8138 121.054 46.8138ZM121.366 45.6632C121.762 45.6632 122.101 45.5849 122.382 45.4283C122.667 45.2717 122.882 45.0672 123.029 44.8147C123.18 44.559 123.255 44.2857 123.255 43.9949V43.0457C123.204 43.0968 123.104 43.1448 122.957 43.1895C122.814 43.2311 122.649 43.2678 122.464 43.2998C122.278 43.3285 122.098 43.3557 121.922 43.3813C121.746 43.4036 121.599 43.4228 121.481 43.4388C121.203 43.474 120.949 43.5331 120.719 43.6162C120.492 43.6993 120.31 43.8191 120.172 43.9757C120.038 44.1291 119.971 44.3337 119.971 44.5894C119.971 44.9441 120.102 45.2126 120.364 45.3948C120.626 45.5737 120.96 45.6632 121.366 45.6632ZM119.424 38.4051L121.371 36.7415H122.44L124.391 38.4051H122.981L121.917 37.4559L120.843 38.4051H119.424ZM123.878 37.3408L124.88 35.591H126.342L124.928 37.3408H123.878Z" fill="#718096"/>
<path d="M130.035 39.2872V40.4377H126.012V39.2872H130.035ZM127.091 37.523H128.525V44.4887C128.525 44.7668 128.566 44.9761 128.649 45.1167C128.732 45.2541 128.839 45.3484 128.97 45.3996C129.105 45.4475 129.25 45.4715 129.407 45.4715C129.522 45.4715 129.622 45.4635 129.709 45.4475C129.795 45.4315 129.862 45.4187 129.91 45.4092L130.169 46.5933C130.086 46.6252 129.968 46.6572 129.814 46.6892C129.661 46.7243 129.469 46.7435 129.239 46.7467C128.862 46.7531 128.51 46.686 128.184 46.5453C127.858 46.4047 127.594 46.1874 127.393 45.8933C127.192 45.5993 127.091 45.2302 127.091 44.7859V37.523Z" fill="#718096"/>
<path d="M136.137 43.3094C135.875 43.3094 135.65 43.2167 135.461 43.0313C135.273 42.8427 135.179 42.6158 135.179 42.3506C135.179 42.0885 135.273 41.8648 135.461 41.6794C135.65 41.4908 135.875 41.3965 136.137 41.3965C136.4 41.3965 136.625 41.4908 136.813 41.6794C137.002 41.8648 137.096 42.0885 137.096 42.3506C137.096 42.5263 137.051 42.6877 136.962 42.8348C136.876 42.9786 136.761 43.0936 136.617 43.1799C136.473 43.2662 136.313 43.3094 136.137 43.3094Z" fill="#718096"/>
<path d="M149.349 39.9344C149.256 39.6435 149.131 39.3831 148.975 39.1529C148.821 38.9196 148.637 38.7215 148.423 38.5585C148.209 38.3923 147.965 38.266 147.69 38.1798C147.418 38.0935 147.119 38.0503 146.793 38.0503C146.24 38.0503 145.742 38.1925 145.298 38.477C144.853 38.7614 144.502 39.1785 144.243 39.7282C143.987 40.2747 143.859 40.9443 143.859 41.7369C143.859 42.5327 143.989 43.2055 144.248 43.7552C144.507 44.3049 144.861 44.722 145.312 45.0065C145.763 45.2909 146.276 45.4331 146.851 45.4331C147.385 45.4331 147.85 45.3245 148.246 45.1071C148.645 44.8898 148.954 44.583 149.171 44.1867C149.392 43.7872 149.502 43.3174 149.502 42.7772L149.886 42.8491H147.076V41.6267H150.935V42.7437C150.935 43.5682 150.76 44.2842 150.408 44.8914C150.06 45.4954 149.577 45.9621 148.96 46.2913C148.347 46.6204 147.644 46.785 146.851 46.785C145.962 46.785 145.183 46.5805 144.511 46.1714C143.843 45.7623 143.322 45.1822 142.949 44.4312C142.575 43.6769 142.388 42.782 142.388 41.7465C142.388 40.9635 142.496 40.2604 142.714 39.6371C142.931 39.0139 143.236 38.485 143.629 38.0503C144.026 37.6125 144.491 37.2785 145.024 37.0484C145.561 36.815 146.148 36.6984 146.784 36.6984C147.314 36.6984 147.808 36.7767 148.265 36.9333C148.725 37.0899 149.134 37.312 149.492 37.5997C149.854 37.8873 150.152 38.2293 150.389 38.6256C150.625 39.0187 150.785 39.455 150.868 39.9344H149.349Z" fill="#718096"/>
<path d="M153.162 46.6508V39.2872H154.596V46.6508H153.162ZM153.886 38.151C153.637 38.151 153.423 38.0679 153.244 37.9017C153.068 37.7323 152.98 37.531 152.98 37.2976C152.98 37.0611 153.068 36.8598 153.244 36.6936C153.423 36.5242 153.637 36.4395 153.886 36.4395C154.135 36.4395 154.348 36.5242 154.524 36.6936C154.703 36.8598 154.792 37.0611 154.792 37.2976C154.792 37.531 154.703 37.7323 154.524 37.9017C154.348 38.0679 154.135 38.151 153.886 38.151Z" fill="#718096"/>
<path d="M158.667 46.8138C158.2 46.8138 157.778 46.7275 157.401 46.5549C157.024 46.3791 156.725 46.1251 156.505 45.7927C156.288 45.4603 156.179 45.0528 156.179 44.5702C156.179 44.1547 156.259 43.8127 156.419 43.5443C156.578 43.2758 156.794 43.0633 157.066 42.9067C157.337 42.7501 157.641 42.6318 157.977 42.5519C158.312 42.472 158.654 42.4113 159.003 42.3697C159.444 42.3186 159.802 42.2771 160.076 42.2451C160.351 42.2099 160.551 42.154 160.676 42.0773C160.8 42.0006 160.863 41.8759 160.863 41.7034V41.6698C160.863 41.2511 160.744 40.9267 160.508 40.6966C160.275 40.4665 159.926 40.3514 159.463 40.3514C158.98 40.3514 158.6 40.4585 158.322 40.6726C158.047 40.8836 157.857 41.1185 157.751 41.3774L156.404 41.0706C156.564 40.6231 156.797 40.262 157.104 39.9871C157.414 39.709 157.771 39.5077 158.173 39.3831C158.576 39.2552 158.999 39.1913 159.444 39.1913C159.738 39.1913 160.049 39.2264 160.378 39.2968C160.711 39.3639 161.021 39.4885 161.309 39.6707C161.599 39.8529 161.837 40.1133 162.023 40.4521C162.208 40.7877 162.301 41.224 162.301 41.7609V46.6508H160.901V45.6441H160.843C160.751 45.8294 160.612 46.0116 160.426 46.1906C160.241 46.3696 160.003 46.5182 159.712 46.6364C159.421 46.7547 159.073 46.8138 158.667 46.8138ZM158.979 45.6632C159.375 45.6632 159.714 45.5849 159.995 45.4283C160.279 45.2717 160.495 45.0672 160.642 44.8147C160.792 44.559 160.867 44.2857 160.867 43.9949V43.0457C160.816 43.0968 160.717 43.1448 160.57 43.1895C160.426 43.2311 160.262 43.2678 160.076 43.2998C159.891 43.3285 159.71 43.3557 159.535 43.3813C159.359 43.4036 159.212 43.4228 159.094 43.4388C158.816 43.474 158.562 43.5331 158.331 43.6162C158.104 43.6993 157.922 43.8191 157.785 43.9757C157.651 44.1291 157.584 44.3337 157.584 44.5894C157.584 44.9441 157.715 45.2126 157.977 45.3948C158.239 45.5737 158.573 45.6632 158.979 45.6632ZM158.926 38.3044L160.048 36.0943H161.558L160.072 38.3044H158.926Z" fill="#718096"/>
<path d="M171.22 39.2872V40.4377H167.198V39.2872H171.22ZM168.277 37.523H169.71V44.4887C169.71 44.7668 169.752 44.9761 169.835 45.1167C169.918 45.2541 170.025 45.3484 170.156 45.3996C170.29 45.4475 170.436 45.4715 170.592 45.4715C170.707 45.4715 170.808 45.4635 170.894 45.4475C170.98 45.4315 171.048 45.4187 171.096 45.4092L171.354 46.5933C171.271 46.6252 171.153 46.6572 171 46.6892C170.846 46.7243 170.654 46.7435 170.424 46.7467C170.047 46.7531 169.696 46.686 169.37 46.5453C169.044 46.4047 168.78 46.1874 168.579 45.8933C168.377 45.5993 168.277 45.2302 168.277 44.7859V37.523Z" fill="#718096"/>
<path d="M175.828 46.7994C175.138 46.7994 174.536 46.6412 174.021 46.3248C173.507 46.0084 173.107 45.5658 172.823 44.9969C172.538 44.428 172.396 43.7632 172.396 43.0025C172.396 42.2387 172.538 41.5707 172.823 40.9986C173.107 40.4266 173.507 39.9823 174.021 39.6659C174.536 39.3495 175.138 39.1913 175.828 39.1913C176.519 39.1913 177.121 39.3495 177.636 39.6659C178.15 39.9823 178.55 40.4266 178.834 40.9986C179.119 41.5707 179.261 42.2387 179.261 43.0025C179.261 43.7632 179.119 44.428 178.834 44.9969C178.55 45.5658 178.15 46.0084 177.636 46.3248C177.121 46.6412 176.519 46.7994 175.828 46.7994ZM175.833 45.5961C176.281 45.5961 176.651 45.4779 176.945 45.2414C177.239 45.0049 177.457 44.69 177.597 44.2969C177.741 43.9038 177.813 43.4708 177.813 42.9978C177.813 42.5279 177.741 42.0965 177.597 41.7034C177.457 41.3071 177.239 40.9891 176.945 40.7494C176.651 40.5096 176.281 40.3898 175.833 40.3898C175.383 40.3898 175.009 40.5096 174.711 40.7494C174.417 40.9891 174.198 41.3071 174.055 41.7034C173.914 42.0965 173.844 42.5279 173.844 42.9978C173.844 43.4708 173.914 43.9038 174.055 44.2969C174.198 44.69 174.417 45.0049 174.711 45.2414C175.009 45.4779 175.383 45.5961 175.833 45.5961ZM173.35 38.4051L175.296 36.7415H176.365L178.317 38.4051H176.907L175.843 37.4559L174.769 38.4051H173.35ZM177.804 37.3408L178.806 35.591H180.268L178.853 37.3408H177.804Z" fill="#718096"/>
<path d="M184.298 39.2872V40.4377H180.276V39.2872H184.298ZM181.355 37.523H182.788V44.4887C182.788 44.7668 182.83 44.9761 182.913 45.1167C182.996 45.2541 183.103 45.3484 183.234 45.3996C183.368 45.4475 183.514 45.4715 183.67 45.4715C183.785 45.4715 183.886 45.4635 183.972 45.4475C184.059 45.4315 184.126 45.4187 184.174 45.4092L184.433 46.5933C184.349 46.6252 184.231 46.6572 184.078 46.6892C183.924 46.7243 183.733 46.7435 183.502 46.7467C183.125 46.7531 182.774 46.686 182.448 46.5453C182.122 46.4047 181.858 46.1874 181.657 45.8933C181.455 45.5993 181.355 45.2302 181.355 44.7859V37.523Z" fill="#718096"/>
<defs>
<linearGradient id="paint0_linear_8813_220456" x1="41.9097" y1="44.5262" x2="8.72451" y2="1.33645" gradientUnits="userSpaceOnUse">
<stop stop-color="#3280F6"/>
<stop offset="0.984457" stop-color="#7DFFDE"/>
</linearGradient>
<linearGradient id="paint1_linear_8813_220456" x1="20.0747" y1="19.6692" x2="27.6988" y2="29.4586" gradientUnits="userSpaceOnUse">
<stop stop-color="#67DFBF"/>
<stop offset="1" stop-color="#32AFF6"/>
</linearGradient>
<linearGradient id="paint2_linear_8813_220456" x1="14.2105" y1="13.9399" x2="33.862" y2="39.242" gradientUnits="userSpaceOnUse">
<stop stop-color="#64D9BD"/>
<stop offset="0.270833" stop-color="#3D89EF"/>
</linearGradient>
</defs>
</svg>
